<?xml version="1.0" encoding="UTF-8" standalone="no"?>
<!-- Generator: Adobe Illustrator 16.0.0, SVG Export Plug-In . SVG Version: 6.00 Build 0)  -->

<svg
   xmlns:dc="http://purl.org/dc/elements/1.1/"
   xmlns:cc="http://creativecommons.org/ns#"
   xmlns:rdf="http://www.w3.org/1999/02/22-rdf-syntax-ns#"
   xmlns:svg="http://www.w3.org/2000/svg"
   xmlns="http://www.w3.org/2000/svg"
   xmlns:sodipodi="http://sodipodi.sourceforge.net/DTD/sodipodi-0.dtd"
   xmlns:inkscape="http://www.inkscape.org/namespaces/inkscape"
   version="1.1"
   x="0px"
   y="0px"
   width="50"
   height="50"
   viewBox="0 0 50 50"
   enable-background="new 0 0 512 512"
   xml:space="preserve"
   id="svg2"
   inkscape:version="0.91 r13725"
   sodipodi:docname="logo_white_50x50.svg"
   inkscape:export-filename="/Users/Lilian/Dropbox/PERSO/Projects/ShortcutList_net/logo/logo_white_50x50.png"
   inkscape:export-xdpi="90"
   inkscape:export-ydpi="90"><metadata
     id="metadata21"><rdf:RDF><cc:Work
         rdf:about=""><dc:format>image/svg+xml</dc:format><dc:type
           rdf:resource="http://purl.org/dc/dcmitype/StillImage" /><dc:title /></cc:Work></rdf:RDF></metadata><defs
     id="defs19" /><sodipodi:namedview
     pagecolor="#ffffff"
     bordercolor="#666666"
     borderopacity="1"
     objecttolerance="10"
     gridtolerance="10"
     guidetolerance="10"
     inkscape:pageopacity="0"
     inkscape:pageshadow="2"
     inkscape:window-width="1440"
     inkscape:window-height="798"
     id="namedview17"
     showgrid="false"
     inkscape:zoom="10.429825"
     inkscape:cx="21.137288"
     inkscape:cy="23.83977"
     inkscape:window-x="0"
     inkscape:window-y="0"
     inkscape:window-maximized="1"
     inkscape:current-layer="layer2" /><g
     id="Capa_2"
     transform="translate(0,-462)" /><g
     id="Artwork"
     transform="translate(0,-462)" /><g
     id="Layer_3"
     transform="translate(0,-462)" /><g
     id="Layer_4"
     transform="translate(0,-462)" /><g
     inkscape:groupmode="layer"
     id="layer2"
     inkscape:label="Square"
     style="display:inline"
     sodipodi:insensitive="true"><rect
       style="fill:#000000;stroke-width:0;stroke-miterlimit:4;stroke-dasharray:none"
       id="rect3482"
       width="50"
       height="50"
       x="0.095878944"
       y="0.14297839"
       rx="5"
       ry="5" /></g><g
     inkscape:groupmode="layer"
     id="layer1"
     inkscape:label="Scissors"
     style="display:inline"
     sodipodi:insensitive="true"><g
       id="g3617"
       transform="matrix(0.10896864,0,0,0.10896864,-3.2210983,-3.0982431)"
       style="fill:#e6e6e6"><g
         id="Capa_2-97"
         style="fill:#e6e6e6" /><g
         id="Artwork-09"
         style="fill:#e6e6e6" /><g
         id="Layer_3-4"
         style="fill:#e6e6e6" /><g
         id="Layer_4-1"
         style="fill:#e6e6e6" /><g
         id="Layer_5-6"
         style="fill:#e6e6e6"><g
           id="g3603"
           style="fill:#e6e6e6"><path
             id="path3605"
             d="m 321.802,313.301 c -1.524,-2.411 -8.687,-11.195 -11.079,-14.11 -3.782,-4.608 -8.095,-4.108 -11.486,-0.034 -8.271,9.936 -19.832,23.728 -26.46,31.623 -4.398,5.24 -5.227,9.391 -1.731,13.266 1.542,1.709 7.954,9.045 7.954,9.045 -12.342,27.566 -7.277,61.031 15.352,83.66 29.285,29.285 76.766,29.285 106.051,0 29.284,-29.285 29.284,-76.766 0,-106.051 -21.261,-21.26 -52.087,-27.005 -78.601,-17.399 z m 51.777,96.627 c -13.551,13.55 -35.52,13.55 -49.068,0 -13.551,-13.55 -13.551,-35.519 0,-49.068 13.549,-13.55 35.518,-13.55 49.068,0 13.549,13.549 13.549,35.518 0,49.068 z"
             inkscape:connector-curvature="0"
             style="fill:#e6e6e6" /><path
             id="path3607"
             d="m 204.755,261.403 c 8.522,-11.597 22.224,-29.08 29.38,-38.96 3.598,-4.966 3.931,-8.799 0.021,-14.211 C 207.533,171.378 126.732,61.494 126.732,61.494 115.555,48.373 102.923,51.301 98.661,68.002 l -7.715,30.226 c -4.263,16.7 2.222,40.337 14.409,52.524 0,0 66.482,82.781 88.285,110.658 3.582,4.578 8.113,4.078 11.115,-0.007 z"
             inkscape:connector-curvature="0"
             style="fill:#e6e6e6" /><path
             id="path3609"
             d="m 112.35,326.365 c -29.285,29.285 -29.285,76.766 0,106.051 29.285,29.285 76.766,29.285 106.051,0 22.629,-22.629 27.693,-56.094 15.352,-83.66 L 394.669,156.502 c 12.188,-12.188 18.672,-35.823 14.408,-52.524 L 401.362,73.752 C 397.1,57.051 384.467,54.123 373.292,67.244 L 195.736,302.36 c -1.666,1.956 -3.262,4.195 -4.787,6.607 -26.515,-9.606 -57.34,-3.86 -78.599,17.398 z m 26.822,30.16 c 13.551,-13.549 35.52,-13.549 49.068,0 13.551,13.551 13.551,35.52 0,49.068 -13.549,13.551 -35.518,13.551 -49.068,0 -13.549,-13.548 -13.549,-35.517 0,-49.068 z"
             inkscape:connector-curvature="0"
             style="fill:#e6e6e6" /></g></g></g></g></svg>